<svg width="140" height="140" xmlns="http://www.w3.org/2000/svg">
 <!-- Created with Method Draw - http://github.com/duopixel/Method-Draw/ -->

 <g>
  <title>background</title>
  <rect fill="none" id="canvas_background" height="142" width="142" y="-1" x="-1"/>
  <g display="none" overflow="visible" y="0" x="0" height="100%" width="100%" id="canvasGrid">
   <rect fill="url(#gridpattern)" stroke-width="0" y="0" x="0" height="100%" width="100%"/>
  </g>
 </g>
 <g>
  <title>Layer 1</title>
  <g id="svg_13">
   <g transform="matrix(9.18273628031693,0,0,9.18273628031693,0,0) " id="svg_5">
    <g id="svg_7">
     <rect x="-0.376999" y="-14.1592" id="svg_8" fill="none" height="44" width="16"/>
    </g>
    <g id="svg_9">
     <path id="svg_10" fill="#FFFFFF" d="m6.123001,12.4208c-3.35,0 -6.08,-2.73 -6.08,-6.08s2.73,-6.08 6.08,-6.08s6.08,2.73 6.08,6.08s-2.73,6.08 -6.08,6.08zm0,-11c-2.72,0 -4.92,2.21 -4.92,4.92s2.21,4.92 4.92,4.92s4.92,-2.21 4.92,-4.92s-2.2,-4.92 -4.92,-4.92z"/>
    </g>
    <g id="svg_11">
     <rect id="svg_12" fill="#FFFFFF" height="6.36" width="1.15" transform="matrix(0.7071,-0.7071,0.7071,0.7071,-15.1807,16.8505) " y="13.291256" x="21.925582"/>
    </g>
   </g>
  </g>
 </g>
</svg>