<svg width="150" height="170" xmlns="http://www.w3.org/2000/svg">
 <!-- Created with Method Draw - http://github.com/duopixel/Method-Draw/ -->

 <g>
  <title>background</title>
  <rect fill="none" id="canvas_background" height="172" width="152" y="-1" x="-1"/>
  <g display="none" overflow="visible" y="0" x="0" height="100%" width="100%" id="canvasGrid">
   <rect fill="url(#gridpattern)" stroke-width="0" y="0" x="0" height="100%" width="100%"/>
  </g>
 </g>
 <g>
  <title>Layer 1</title>
  <g id="svg_12">
   <g transform="matrix(9.18273628031693,0,0,9.18273628031693,0,0) " id="svg_6">
    <g id="svg_7">
     <path stroke="#fff" id="svg_9" fill="#000" d="m2.589001,3.647601c-0.83,0 -1.5,0.67 -1.5,1.5l0,11c0,0.83 0.67,1.5 1.5,1.5l11,0c0.83,0 1.5,-0.67 1.5,-1.5l0,-11c0,-0.83 -0.67,-1.5 -1.5,-1.5l-11,0zm11.5,12.5c0,0.28 -0.22,0.5 -0.5,0.5l-11,0c-0.28,0 -0.5,-0.22 -0.5,-0.5l0,-11c0,-0.28 0.22,-0.5 0.5,-0.5l11,0c0.28,0 0.5,0.22 0.5,0.5l0,11z"/>
    </g>
    <g id="svg_10">
     <path stroke="#fff" id="svg_11" fill="#000" d="m11.839001,4.647601l-7.5,0l0,-0.5c0,-2.16 1.95,-3.5 3.75,-3.5s3.75,1.34 3.75,3.5l0,0.5zm-6.45,-1l5.4,0c-0.27,-1.25 -1.52,-2 -2.7,-2s-2.43,0.75 -2.7,2z"/>
    </g>
   </g>
  </g>
 </g>
</svg>